# xmcd CD database file
#
# Track frame offsets:
#	150
#	23590
#	40210
#	53786
#	76641
#	95441
#	114771
#	131147
#
# Disc length: 2039 seconds
#
# Revision: 0
# Processed by: cddbd v1.4PL0 Copyright (c) Steve Scherf et al.
# Submitted via: CDex 1.40Release
#
DISCID=5407f508
DTITLE=TSA - TSA
DYEAR=1900
DGENRE=Native American
TTITLE0=Wysokie Sfery
TTITLE1=Ludzie jak Dynie
TTITLE2=Nocny sabat
TTITLE3=3 zapalki
TTITLE4=Na co Cie stac
TTITLE5=Jeden kroczek
TTITLE6=Twoje sumienie
TTITLE7=Bez podtekstow
EXTD=ID3G: 64
EXTT0=
EXTT1=
EXTT2=
EXTT3=
EXTT4=
EXTT5=
EXTT6=
EXTT7=
PLAYORDER=
